<svg 
    style="position: absolute; width: 0; height: 0; overflow: hidden;" 
    version="1.1"
    xmlns="http://www.w3.org/2000/svg"
    xmlns:xlink="http://www.w3.org/1999/xlink"
>
    <defs>
        <symbol id="icon-add" viewBox="0 0 32 32">
            <path d="M4 13.333h24c1.473 0 2.667 1.194 2.667 2.667s-1.194 2.667-2.667 2.667h-24c-1.473 0-2.667-1.194-2.667-2.667s1.194-2.667 2.667-2.667z"></path>
            <path d="M18.667 4v24c0 1.473-1.194 2.667-2.667 2.667s-2.667-1.194-2.667-2.667v-24c0-1.473 1.194-2.667 2.667-2.667s2.667 1.194 2.667 2.667z"></path>
        </symbol>

        <symbol id="icon-heart" viewBox="0 0 32 32">
            <path d="M23.6 2c-3.363 0-6.258 2.736-7.599 5.594-1.342-2.858-4.237-5.594-7.601-5.594-4.637 0-8.4 3.764-8.4 8.401 0 9.433 9.516 11.906 16.001 21.232 6.13-9.268 15.999-12.1 15.999-21.232 0-4.637-3.763-8.401-8.4-8.401z"></path>
        </symbol>

        <symbol id="icon-users" viewBox="0 0 36 32">
            <path d="M24 24.082v-1.649c2.203-1.241 4-4.337 4-7.432 0-4.971 0-9-6-9s-6 4.029-6 9c0 3.096 1.797 6.191 4 7.432v1.649c-6.784 0.555-12 3.888-12 7.918h28c0-4.030-5.216-7.364-12-7.918z"></path>
            <path d="M10.225 24.854c1.728-1.13 3.877-1.989 6.243-2.513-0.47-0.556-0.897-1.176-1.265-1.844-0.95-1.726-1.453-3.627-1.453-5.497 0-2.689 0-5.228 0.956-7.305 0.928-2.016 2.598-3.265 4.976-3.734-0.529-2.39-1.936-3.961-5.682-3.961-6 0-6 4.029-6 9 0 3.096 1.797 6.191 4 7.432v1.649c-6.784 0.555-12 3.888-12 7.918h8.719c0.454-0.403 0.956-0.787 1.506-1.146z"></path>
        </symbol>

        <symbol id="icon-play" viewBox="0 0 32 32">
            <path d="M6 4l20 12-20 12z"></path>
        </symbol>
    </defs>
</svg>
